{
  "accessors": [
    {
      "bufferView": 2,
      "componentType": 5126,
      "count": 4,
      "max": [
        1,
        0,
        1
      ],
      "min": [
        -1,
        0,
        -1
      ],
      "type": "VEC3"
    },
    {
      "bufferView": 2,
      "byteOffset": 48,
      "componentType": 5126,
      "count": 4,
      "max": [
        0,
        1,
        -0
      ],
      "min": [
        0,
        1,
        -0
      ],
      "type": "VEC3"
    },
    {
      "bufferView": 1,
      "componentType": 5126,
      "count": 4,
      "max": [
        1,
        1
      ],
      "min": [
        0,
        0
      ],
      "type": "VEC2"
    },
    {
      "bufferView": 0,
      "componentType": 5125,
      "count": 6,
      "max": [
        3
      ],
      "min": [
        0
      ],
      "type": "SCALAR"
    },
    {
      "bufferView": 2,
      "byteOffset": 96,
      "componentType": 5126,
      "count": 5632,
      "max": [
        2.2743446826934814,
        6.7148709297180176,
        1.7943358421325684
      ],
      "min": [
        0.36534696817398071,
        -5.8596487045288086,
        -1.7943358421325684
      ],
      "type": "VEC3"
    },
    {
      "bufferView": 2,
      "byteOffset": 67680,
      "componentType": 5126,
      "count": 5632,
      "max": [
        0.99374961853027344,
        0.9725152850151062,
        0.99962723255157471
      ],
      "min": [
        -0.98709112405776978,
        -0.53277093172073364,
        -0.99962729215621948
      ],
      "type": "VEC3"
    },
    {
      "bufferView": 1,
      "byteOffset": 32,
      "componentType": 5126,
      "count": 5632,
      "max": [
        0.97186803817749023,
        0.48461151123046875
      ],
      "min": [
        0.084867745637893677,
        0.21526853740215302
      ],
      "type": "VEC2"
    },
    {
      "bufferView": 0,
      "byteOffset": 24,
      "componentType": 5125,
      "count": 8448,
      "max": [
        5631
      ],
      "min": [
        0
      ],
      "type": "SCALAR"
    },
    {
      "bufferView": 2,
      "byteOffset": 135264,
      "componentType": 5126,
      "count": 65533,
      "max": [
        2.3822600841522217,
        6.7493600845336914,
        0.55297929048538208
      ],
      "min": [
        -0.65099567174911499,
        -6.8623433113098145,
        -1.8816468715667725
      ],
      "type": "VEC3"
    },
    {
      "bufferView": 2,
      "byteOffset": 921660,
      "componentType": 5126,
      "count": 65533,
      "max": [
        1,
        1,
        1
      ],
      "min": [
        -1,
        -1,
        -1
      ],
      "type": "VEC3"
    },
    {
      "bufferView": 1,
      "byteOffset": 45088,
      "componentType": 5126,
      "count": 65533,
      "max": [
        0.97456306219100952,
        0.4998374879360199
      ],
      "min": [
        0.014030605554580688,
        0.069239057600498199
      ],
      "type": "VEC2"
    },
    {
      "bufferView": 0,
      "byteOffset": 33816,
      "componentType": 5125,
      "count": 361155,
      "max": [
        65532
      ],
      "min": [
        0
      ],
      "type": "SCALAR"
    },
    {
      "bufferView": 2,
      "byteOffset": 1708056,
      "componentType": 5126,
      "count": 65532,
      "max": [
        2.3822603225708008,
        6.7507314682006836,
        0.53145682811737061
      ],
      "min": [
        -0.97516423463821411,
        -5.7554259300231934,
        -5.5173759460449219
      ],
      "type": "VEC3"
    },
    {
      "bufferView": 2,
      "byteOffset": 2494440,
      "componentType": 5126,
      "count": 65532,
      "max": [
        1,
        0.9999927282333374,
        1
      ],
      "min": [
        -0.99999797344207764,
        -0.99829035997390747,
        -1
      ],
      "type": "VEC3"
    },
    {
      "bufferView": 1,
      "byteOffset": 569352,
      "componentType": 5126,
      "count": 65532,
      "max": [
        0.97456306219100952,
        0.97715771198272705
      ],
      "min": [
        0.00054596143309026957,
        0.00031251215841621161
      ],
      "type": "VEC2"
    },
    {
      "bufferView": 0,
      "byteOffset": 1478436,
      "componentType": 5125,
      "count": 355329,
      "max": [
        65531
      ],
      "min": [
        0
      ],
      "type": "SCALAR"
    },
    {
      "bufferView": 2,
      "byteOffset": 3280824,
      "componentType": 5126,
      "count": 65532,
      "max": [
        0.62459731101989746,
        6.6959900856018066,
        4.44110107421875
      ],
      "min": [
        -0.97516423463821411,
        -6.839167594909668,
        -4.3653631210327148
      ],
      "type": "VEC3"
    },
    {
      "bufferView": 2,
      "byteOffset": 4067208,
      "componentType": 5126,
      "count": 65532,
      "max": [
        0.99999117851257324,
        0.98300635814666748,
        0.99999171495437622
      ],
      "min": [
        -0.99999344348907471,
        -1,
        -0.99999356269836426
      ],
      "type": "VEC3"
    },
    {
      "bufferView": 1,
      "byteOffset": 1093608,
      "componentType": 5126,
      "count": 65532,
      "max": [
        0.99968767166137695,
        0.76224523782730103
      ],
      "min": [
        0.00031251215841621161,
        0.0005416312487795949
      ],
      "type": "VEC2"
    },
    {
      "bufferView": 0,
      "byteOffset": 2899752,
      "componentType": 5125,
      "count": 367110,
      "max": [
        65531
      ],
      "min": [
        0
      ],
      "type": "SCALAR"
    },
    {
      "bufferView": 2,
      "byteOffset": 4853592,
      "componentType": 5126,
      "count": 65532,
      "max": [
        2.3822603225708008,
        6.7507314682006836,
        5.5173759460449219
      ],
      "min": [
        -0.97003978490829468,
        -6.8612008094787598,
        -0.55297929048538208
      ],
      "type": "VEC3"
    },
    {
      "bufferView": 2,
      "byteOffset": 5639976,
      "componentType": 5126,
      "count": 65532,
      "max": [
        1,
        1,
        1
      ],
      "min": [
        -0.99999970197677612,
        -0.99999994039535522,
        -1
      ],
      "type": "VEC3"
    },
    {
      "bufferView": 1,
      "byteOffset": 1617864,
      "componentType": 5126,
      "count": 65532,
      "max": [
        0.97456306219100952,
        0.97715771198272705
      ],
      "min": [
        0.0045640873722732067,
        0.00031251215841621161
      ],
      "type": "VEC2"
    },
    {
      "bufferView": 0,
      "byteOffset": 4368192,
      "componentType": 5125,
      "count": 354375,
      "max": [
        65531
      ],
      "min": [
        0
      ],
      "type": "SCALAR"
    },
    {
      "bufferView": 2,
      "byteOffset": 6426360,
      "componentType": 5126,
      "count": 65532,
      "max": [
        -0.016331901773810387,
        2.5478043556213379,
        4.365363597869873
      ],
      "min": [
        -0.97516423463821411,
        -2.1027102470397949,
        -2.3563103675842285
      ],
      "type": "VEC3"
    },
    {
      "bufferView": 2,
      "byteOffset": 7212744,
      "componentType": 5126,
      "count": 65532,
      "max": [
        0.99999111890792847,
        0.98301440477371216,
        0.99999356269836426
      ],
      "min": [
        -0.99999344348907471,
        -1,
        -0.99999141693115234
      ],
      "type": "VEC3"
    },
    {
      "bufferView": 1,
      "byteOffset": 2142120,
      "componentType": 5126,
      "count": 65532,
      "max": [
        0.92652100324630737,
        0.72946268320083618
      ],
      "min": [
        0.00031251215841621161,
        0.00031251215841621161
      ],
      "type": "VEC2"
    },
    {
      "bufferView": 0,
      "byteOffset": 5785692,
      "componentType": 5125,
      "count": 364500,
      "max": [
        65531
      ],
      "min": [
        0
      ],
      "type": "SCALAR"
    },
    {
      "bufferView": 2,
      "byteOffset": 7999128,
      "componentType": 5126,
      "count": 33246,
      "max": [
        -0.016331901773810387,
        2.5478043556213379,
        -0
      ],
      "min": [
        -0.97516423463821411,
        -6.8306660652160645,
        -4.4411015510559082
      ],
      "type": "VEC3"
    },
    {
      "bufferView": 2,
      "byteOffset": 8398080,
      "componentType": 5126,
      "count": 33246,
      "max": [
        0.99999117851257324,
        0.98301541805267334,
        0.99999356269836426
      ],
      "min": [
        -0.99999344348907471,
        -0.99999994039535522,
        -0.99999105930328369
      ],
      "type": "VEC3"
    },
    {
      "bufferView": 1,
      "byteOffset": 2666376,
      "componentType": 5126,
      "count": 33246,
      "max": [
        0.99968767166137695,
        0.76224523782730103
      ],
      "min": [
        0.00052230409346520901,
        0.0005416312487795949
      ],
      "type": "VEC2"
    },
    {
      "bufferView": 0,
      "byteOffset": 7243692,
      "componentType": 5125,
      "count": 186345,
      "max": [
        33245
      ],
      "min": [
        0
      ],
      "type": "SCALAR"
    }
  ],
  "asset": {
    "extras": {
      "author": "michael-dg (https://sketchfab.com/michael-dg)",
      "license": "CC-BY-4.0 (http://creativecommons.org/licenses/by/4.0/)",
      "source": "https://sketchfab.com/3d-models/boeing-747-400-f6254066ba5c4008a6a89a3f36e7d9a4",
      "title": "Boeing 747-400"
    },
    "generator": "Sketchfab-8.47.0",
    "version": "2.0"
  },
  "bufferViews": [
    {
      "buffer": 0,
      "byteLength": 7989072,
      "byteOffset": 0,
      "name": "floatBufferViews",
      "target": 34963
    },
    {
      "buffer": 0,
      "byteLength": 2932344,
      "byteOffset": 7989072,
      "byteStride": 8,
      "name": "floatBufferViews",
      "target": 34962
    },
    {
      "buffer": 0,
      "byteLength": 8797032,
      "byteOffset": 10921416,
      "byteStride": 12,
      "name": "floatBufferViews",
      "target": 34962
    }
  ],
  "buffers": [
    {
      "byteLength": 19718448,
      "uri": "scene.bin"
    }
  ],
  "images": [
    {
      "uri": "textures/Material_baseColor.jpeg"
    },
    {
      "uri": "textures/Material.006_baseColor.png"
    }
  ],
  "materials": [
    {
      "doubleSided": true,
      "emissiveFactor": [
        0,
        0,
        0
      ],
      "name": "Material",
      "pbrMetallicRoughness": {
        "baseColorFactor": [
          1,
          1,
          1,
          1
        ],
        "baseColorTexture": {
          "index": 0,
          "texCoord": 0
        },
        "metallicFactor": 0,
        "roughnessFactor": 0.5
      }
    },
    {
      "doubleSided": true,
      "emissiveFactor": [
        0,
        0,
        0
      ],
      "name": "Cockpit_window_and_tiny_wings",
      "pbrMetallicRoughness": {
        "baseColorFactor": [
          0.044518700000000001,
          0.061136599999999999,
          0.076579900000000006,
          1
        ],
        "metallicFactor": 0,
        "roughnessFactor": 0.5
      }
    },
    {
      "doubleSided": true,
      "emissiveFactor": [
        0,
        0,
        0
      ],
      "name": "Material.006",
      "pbrMetallicRoughness": {
        "baseColorFactor": [
          1,
          1,
          1,
          1
        ],
        "baseColorTexture": {
          "index": 1,
          "texCoord": 0
        },
        "metallicFactor": 0.38476095799208365,
        "roughnessFactor": 0.5
      }
    }
  ],
  "meshes": [
    {
      "primitives": [
        {
          "attributes": {
            "NORMAL": 1,
            "POSITION": 0,
            "TEXCOORD_0": 2
          },
          "indices": 3,
          "material": 0,
          "mode": 4
        }
      ]
    },
    {
      "primitives": [
        {
          "attributes": {
            "NORMAL": 5,
            "POSITION": 4,
            "TEXCOORD_0": 6
          },
          "indices": 7,
          "material": 1,
          "mode": 4
        }
      ]
    },
    {
      "primitives": [
        {
          "attributes": {
            "NORMAL": 9,
            "POSITION": 8,
            "TEXCOORD_0": 10
          },
          "indices": 11,
          "material": 2,
          "mode": 4
        }
      ]
    },
    {
      "primitives": [
        {
          "attributes": {
            "NORMAL": 13,
            "POSITION": 12,
            "TEXCOORD_0": 14
          },
          "indices": 15,
          "material": 2,
          "mode": 4
        }
      ]
    },
    {
      "primitives": [
        {
          "attributes": {
            "NORMAL": 17,
            "POSITION": 16,
            "TEXCOORD_0": 18
          },
          "indices": 19,
          "material": 2,
          "mode": 4
        }
      ]
    },
    {
      "primitives": [
        {
          "attributes": {
            "NORMAL": 21,
            "POSITION": 20,
            "TEXCOORD_0": 22
          },
          "indices": 23,
          "material": 2,
          "mode": 4
        }
      ]
    },
    {
      "primitives": [
        {
          "attributes": {
            "NORMAL": 25,
            "POSITION": 24,
            "TEXCOORD_0": 26
          },
          "indices": 27,
          "material": 2,
          "mode": 4
        }
      ]
    },
    {
      "primitives": [
        {
          "attributes": {
            "NORMAL": 29,
            "POSITION": 28,
            "TEXCOORD_0": 30
          },
          "indices": 31,
          "material": 2,
          "mode": 4
        }
      ]
    }
  ],
  "nodes": [
    {
      "children": [
        1
      ],
      "name": "RootNode (gltf orientation matrix)",
      "rotation": [
        -0.70710678118654746,
        -0,
        -0,
        0.70710678118654757
      ]
    },
    {
      "children": [
        2
      ],
      "matrix": [
        -0.62952792644500732,
        -0.77697783708572388,
        2.832769343193999e-16,
        0,
        0.77697783708572388,
        -0.62952792644500732,
        7.3955709864469857e-32,
        0,
        1.7833074329467416e-16,
        2.2009990992236404e-16,
        1,
        0,
        -14.582569122314453,
        -35.898948669433594,
        3.5527136788005009e-15,
        1
      ],
      "name": "RootNode (model correction matrix)"
    },
    {
      "children": [
        3
      ],
      "name": "root"
    },
    {
      "children": [
        4,
        6
      ],
      "matrix": [
        1,
        0,
        0,
        0,
        0,
        2.2204460492503131e-16,
        1,
        0,
        0,
        -1,
        2.2204460492503131e-16,
        0,
        0,
        0,
        0,
        1
      ],
      "name": "GLTF_SceneRootNode"
    },
    {
      "children": [
        5
      ],
      "matrix": [
        21.485156414224338,
        6.5505687509199819e-07,
        14.837941542785329,
        0,
        10.4204916891747,
        -1.4756739724803271e-06,
        -15.088743489753304,
        0,
        4.600378498021472e-07,
        18.337306976318292,
        -1.4756739724803271e-06,
        0,
        -17.082496643066406,
        -2.6329402923583984,
        19.713418960571289,
        1
      ],
      "name": "background_0"
    },
    {
      "mesh": 0,
      "name": ""
    },
    {
      "children": [
        7,
        8,
        9,
        10,
        11,
        12,
        13
      ],
      "matrix": [
        0.10333614685848824,
        0.99464649034339891,
        0,
        0,
        -0.99464649034339891,
        0.10333614685848824,
        0,
        0,
        0,
        0,
        1,
        0,
        -0.083004951477050781,
        0.80642527341842651,
        -0.030515933409333229,
        1
      ],
      "name": "Cylinder_3"
    },
    {
      "mesh": 1,
      "name": ""
    },
    {
      "mesh": 2,
      "name": ""
    },
    {
      "mesh": 3,
      "name": ""
    },
    {
      "mesh": 4,
      "name": ""
    },
    {
      "mesh": 5,
      "name": ""
    },
    {
      "mesh": 6,
      "name": ""
    },
    {
      "mesh": 7,
      "name": ""
    }
  ],
  "samplers": [
    {
      "magFilter": 9729,
      "minFilter": 9987,
      "wrapS": 10497,
      "wrapT": 10497
    }
  ],
  "scene": 0,
  "scenes": [
    {
      "name": "OSG_Scene",
      "nodes": [
        0
      ]
    }
  ],
  "textures": [
    {
      "sampler": 0,
      "source": 0
    },
    {
      "sampler": 0,
      "source": 1
    }
  ]
}

